# xmcd CD database file generated by OrangeCD 6.4
#
# Track frame offsets:
#	150
#	22925
#	42006
#	56032
#	77843
#	97792
#	111172
#	129179
#	148084
#	158310
#	170455
#	178714
#	195251
#	209596
#	217298
#	224909
#	238318
#	255633
#	266801
#	276347
#
# Disc length: 3840 seconds
#
# Revision: 0
# Processed by: cddbd v1.5.2PL0 Copyright (c) Steve Scherf et al.
# Submitted via: OrangeCD 6.4
#
DISCID=2b0efe14
DTITLE=Johnny Cash - Ride This Train
DYEAR=2011
DGENRE=Cowboy
TTITLE0=Loading Coal
TTITLE1=Slow Rider
TTITLE2=Lumberjack
TTITLE3=Dorraine Of Ponchartrain
TTITLE4=Going To Memphis
TTITLE5=When Papa Played The Dobro
TTITLE6=Boss Jack
TTITLE7=Old Doc Brown
TTITLE8=Loading Coal
TTITLE9=Slow Rider
TTITLE10=Lumberjack
TTITLE11=Dorraine Of Ponchartrain
TTITLE12=Going To Memphis
TTITLE13=When Papa Played The Dobro
TTITLE14=Boss Jack
TTITLE15=Old Doc Brown
TTITLE16=The Ballad Of Boot Hill
TTITLE17=Remember The Alamo
TTITLE18=Smiling Bill McCall
TTITLE19=The Ballad Of Boot Hill
EXTD=
EXTT0=
EXTT1=
EXTT2=
EXTT3=
EXTT4=
EXTT5=
EXTT6=
EXTT7=
EXTT8=
EXTT9=
EXTT10=
EXTT11=
EXTT12=
EXTT13=
EXTT14=
EXTT15=
EXTT16=
EXTT17=
EXTT18=
EXTT19=
PLAYORDER=
